<svg width="326" height="92" viewBox="0 0 326 92" fill="none" xmlns="http://www.w3.org/2000/svg">
<g clip-path="url(#clip0_1_188)">
<rect x="-8" y="-26" width="334" height="118" rx="30" fill="#42C83C"/>
<path fill-rule="evenodd" clip-rule="evenodd" d="M326.516 -87.6636C319.755 -80.9192 311.36 -71.6738 308.702 -61.1803C307.871 -57.9012 307.6 -54.4987 308.113 -51.013C307.553 -48.5456 307.316 -46.0107 307.496 -43.4252C307.429 -43.1866 307.365 -42.9474 307.304 -42.7075C306.832 -40.8433 306.541 -38.9394 306.472 -37.0029C306.153 -36.0972 305.873 -35.1809 305.639 -34.2549C305.569 -33.9778 305.502 -33.6998 305.44 -33.4209C299.277 -26.9949 292.58 -18.7823 290.258 -9.6177C288.927 -4.36183 289.033 1.21092 291.503 6.93526C293.972 12.6569 298.794 18.508 306.854 24.3378C325.631 37.9194 343.102 38.6008 356.506 39.1235C357.751 39.172 358.96 39.2192 360.133 39.2752C367.053 39.6058 372.594 40.2443 376.45 43.1873C380.286 46.1149 382.528 51.3904 382.641 61.1986L383.23 61.2125C383.117 51.3552 380.866 45.8573 376.812 42.7629C372.778 39.6839 367.033 39.0518 360.142 38.7226C358.967 38.6665 357.757 38.6192 356.513 38.5705C343.115 38.0467 325.821 37.3704 307.202 23.9039C299.206 18.1197 294.466 12.3466 292.048 6.74338C289.631 1.14281 289.524 -4.31012 290.831 -9.47139C293.038 -18.1816 299.27 -26.0504 305.223 -32.3476L305.217 -32.3175C305.066 -31.985 304.919 -31.6508 304.777 -31.315C300.671 -26.2077 297.04 -20.3893 295.454 -14.1263C294.122 -8.87046 294.228 -3.29772 296.699 2.42662C299.168 8.14831 303.989 13.9993 312.049 19.8292C330.827 33.4108 348.298 34.0921 361.701 34.6149C362.946 34.6634 364.156 34.7106 365.328 34.7666C372.248 35.0972 377.79 35.7357 381.646 38.6787C385.481 41.6063 387.724 46.8818 387.837 56.69L388.426 56.7039C388.312 46.8465 386.061 41.3487 382.007 38.2543C377.973 35.1753 372.229 34.5432 365.337 34.2139C364.163 34.1578 362.953 34.1105 361.709 34.0619C348.311 33.538 331.016 32.8618 312.398 19.3953C304.401 13.6111 299.661 7.83797 297.243 2.23475C294.826 -3.36582 294.719 -8.81875 296.027 -13.98C297.326 -19.1057 300.018 -23.94 303.227 -28.3341C301.732 -25.6033 300.527 -22.7453 299.778 -19.7882C298.447 -14.5324 298.553 -8.95962 301.023 -3.23528C303.492 2.48641 308.314 8.33742 316.374 14.1673C335.151 27.7489 352.622 28.4302 366.026 28.9529L366.027 28.953L366.027 28.953L366.032 28.9532L366.035 28.9533C367.277 29.0017 368.483 29.0488 369.653 29.1047C376.573 29.4353 382.114 30.0738 385.97 33.0168C389.806 35.9444 392.048 41.2199 392.161 51.0281L392.75 51.042C392.637 41.1847 390.386 35.6868 386.332 32.5924C382.298 29.5134 376.553 28.8813 369.662 28.552C368.487 28.4959 367.277 28.4486 366.033 28.4C352.635 27.8761 335.341 27.1999 316.723 13.7334C308.726 7.94919 303.986 2.17606 301.568 -3.42715C299.151 -9.02773 299.044 -14.4807 300.351 -19.6419C301.027 -22.31 302.081 -24.899 303.389 -27.3882C303.31 -27.1098 303.234 -26.8306 303.163 -26.5505C301.832 -21.2946 301.938 -15.7219 304.408 -9.99751C306.878 -4.27583 311.699 1.57519 319.759 7.40507C338.536 20.9867 356.007 21.668 369.411 22.1907L369.413 22.1908C370.657 22.2393 371.866 22.2865 373.038 22.3424C379.958 22.6731 385.5 23.3116 389.356 26.2546C393.191 29.1822 395.434 34.4577 395.547 44.2658L396.136 44.2797C396.022 34.4224 393.771 28.9246 389.717 25.8301C385.683 22.7512 379.939 22.1191 373.047 21.7898C371.872 21.7337 370.662 21.6864 369.419 21.6378C356.021 21.1139 338.726 20.4377 320.108 6.97115C312.111 1.18696 307.371 -4.58617 304.953 -10.1894C302.536 -15.79 302.429 -21.2429 303.737 -26.4042C304.049 -27.6374 304.442 -28.8537 304.904 -30.0511C304.526 -26.0613 305.062 -21.9228 306.884 -17.702C309.353 -11.9803 314.174 -6.12927 322.234 -0.299395C341.012 13.2822 358.483 13.9635 371.887 14.4863C373.131 14.5348 374.341 14.582 375.513 14.638C382.434 14.9686 387.975 15.6071 391.831 18.5501C395.666 21.4777 397.909 26.7532 398.022 36.5614L398.611 36.5753C398.497 26.718 396.246 21.2201 392.192 18.1257C388.158 15.0467 382.414 14.4146 375.522 14.0853C374.348 14.0292 373.138 13.9819 371.894 13.9333C358.496 13.4094 341.201 12.7332 322.583 -0.733317C314.586 -6.51751 309.847 -12.2906 307.428 -17.8938C305.458 -22.4599 305.023 -26.9278 305.638 -31.2196C305.889 -31.6068 306.144 -31.9912 306.405 -32.3724C306.5 -32.4859 306.596 -32.599 306.691 -32.7117C306.993 -30.555 307.595 -28.366 308.549 -26.1545C311.019 -20.4328 315.84 -14.5818 323.9 -8.75192C342.677 4.82967 360.148 5.51101 373.552 6.03373C374.797 6.08227 376.007 6.12945 377.179 6.18546C384.099 6.51608 389.641 7.15459 393.497 10.0976C397.332 13.0252 399.575 18.3007 399.688 28.1088L400.277 28.1228C400.163 18.2654 397.912 12.7676 393.858 9.67314C389.824 6.59417 384.08 5.96209 377.188 5.63283C376.013 5.57672 374.803 5.52941 373.56 5.48078C360.162 4.95691 342.867 4.28067 324.249 -9.18584C316.252 -14.97 311.512 -20.7432 309.094 -26.3464C308.079 -28.6975 307.472 -31.0226 307.205 -33.3111C307.906 -34.1209 308.613 -34.9106 309.32 -35.6789C309.388 -35.5117 309.458 -35.3445 309.531 -35.1771C312 -29.4554 316.821 -23.6044 324.881 -17.7745C343.658 -4.19295 361.13 -3.51161 374.533 -2.98889L374.536 -2.98879L374.539 -2.98869L374.544 -2.98851L374.549 -2.98828C375.789 -2.93994 376.993 -2.89294 378.16 -2.83715C385.08 -2.50654 390.622 -1.86803 394.478 1.07499C398.313 4.00255 400.556 9.27807 400.669 19.0862L401.258 19.1001C401.144 9.24281 398.893 3.74495 394.839 0.650525C390.805 -2.42845 385.061 -3.06053 378.169 -3.38979C376.995 -3.44589 375.784 -3.49322 374.541 -3.54185C361.143 -4.06571 343.848 -4.74195 325.23 -18.2085C317.233 -23.9926 312.493 -29.7658 310.075 -35.369C309.963 -35.6289 309.856 -35.8884 309.754 -36.1476C310.804 -37.2763 311.85 -38.3571 312.87 -39.3861C315.641 -35.3559 319.684 -31.2852 325.298 -27.2248C344.075 -13.6432 361.546 -12.9618 374.95 -12.4391C376.194 -12.3906 377.404 -12.3434 378.576 -12.2874C385.497 -11.9568 391.038 -11.3183 394.894 -8.37524C398.729 -5.44768 400.972 -0.172152 401.085 9.636L401.674 9.64991C401.56 -0.207409 399.309 -5.70528 395.255 -8.7997C391.221 -11.8787 385.477 -12.5108 378.585 -12.84C377.411 -12.8961 376.201 -12.9434 374.957 -12.9921C361.559 -13.5159 344.264 -14.1922 325.646 -27.6587C320.019 -31.7285 316.005 -35.7929 313.278 -39.7965L313.462 -39.9816L313.704 -40.2227L313.268 -40.6096C313.162 -40.5036 313.055 -40.3969 312.948 -40.2896C312.912 -40.3453 312.875 -40.4009 312.839 -40.4565C314.59 -42.4008 316.356 -44.2163 318.028 -45.8846L317.593 -46.2715C315.961 -44.6436 314.233 -42.8699 312.515 -40.9682C312.295 -41.3213 312.086 -41.6739 311.886 -42.0259C314.924 -45.9899 318.328 -49.5689 321.413 -52.6468L320.978 -53.0338C317.951 -50.0145 314.597 -46.4939 311.577 -42.5845C311.251 -43.1868 310.954 -43.7873 310.683 -44.386C314.399 -50.5082 319.47 -55.9435 323.889 -60.3513L323.453 -60.7382C319.126 -56.4217 314.129 -51.0806 310.396 -45.0434C310.063 -45.8345 309.776 -46.6226 309.532 -47.4073C313.101 -55.7572 319.868 -63.1313 325.554 -68.8038L325.119 -69.1908C319.585 -63.6708 312.957 -56.4756 309.276 -48.2918C309.033 -49.1906 308.846 -50.0846 308.711 -50.9733C308.758 -51.1772 308.807 -51.3807 308.859 -51.5838C311.479 -61.9245 319.772 -71.0792 326.536 -77.8264L326.1 -78.2134C319.528 -71.6571 311.411 -62.7373 308.521 -52.6051C308.287 -55.4823 308.582 -58.2991 309.275 -61.034C311.895 -71.3747 320.188 -80.5295 326.952 -87.2766L326.516 -87.6636ZM306.565 -33.747C306.494 -33.6094 306.425 -33.4716 306.356 -33.3334C306.43 -33.4389 306.504 -33.544 306.579 -33.6489L306.569 -33.751L306.565 -33.747ZM308.271 -35.925C308.483 -36.1989 308.697 -36.4708 308.912 -36.7408C308.829 -36.9725 308.75 -37.204 308.674 -37.4351C308.291 -36.8286 307.922 -36.215 307.567 -35.5947C307.736 -35.765 307.905 -35.9338 308.073 -36.101L308.271 -35.925ZM312.538 -39.8777C311.927 -39.2615 311.304 -38.6259 310.676 -37.9717C311.261 -38.6678 311.852 -39.3499 312.446 -40.0173L312.506 -39.9259L312.538 -39.8777ZM312.118 -40.527C311.907 -40.8623 311.705 -41.1972 311.511 -41.5317C310.664 -40.4074 309.85 -39.2529 309.081 -38.0709C309.162 -37.8049 309.248 -37.5385 309.34 -37.2718C310.25 -38.3927 311.182 -39.4787 312.118 -40.527ZM306.411 -34.7232L306.337 -34.5851C306.382 -34.7517 306.429 -34.9179 306.477 -35.0838C306.48 -35.0108 306.483 -34.9378 306.487 -34.8648L306.411 -34.7232ZM308.445 -38.1699C307.959 -37.4142 307.491 -36.6471 307.045 -35.8692C307.042 -36.2092 307.046 -36.5483 307.057 -36.8864C307.368 -37.7614 307.716 -38.6268 308.097 -39.4816C308.2 -39.0455 308.316 -38.6083 308.445 -38.1699ZM311.196 -42.0873C310.389 -41.0237 309.608 -39.932 308.867 -38.8146C308.726 -39.3312 308.605 -39.8462 308.501 -40.3595C309.054 -41.5233 309.666 -42.6668 310.326 -43.7879C310.592 -43.2222 310.882 -42.6553 311.196 -42.0873ZM310.028 -44.44C310.001 -44.5025 309.974 -44.5649 309.947 -44.6273C309.665 -45.281 309.413 -45.9327 309.192 -46.5822C308.768 -45.5203 308.398 -44.4432 308.09 -43.3524C308.139 -42.6852 308.216 -42.0147 308.323 -41.3412C308.849 -42.3921 309.42 -43.4256 310.028 -44.44ZM307.889 -40.445C307.806 -40.8682 307.735 -41.2902 307.676 -41.711C307.471 -40.7853 307.312 -39.8506 307.205 -38.9076C307.421 -39.4239 307.649 -39.9364 307.889 -40.445ZM308.911 -47.4547C308.588 -46.6891 308.292 -45.9152 308.026 -45.1335C308.027 -46.5832 308.158 -48.0159 308.4 -49.4288C308.541 -48.7733 308.711 -48.1152 308.911 -47.4547ZM284.347 -6.17436C287.006 -16.6679 295.401 -25.9133 302.162 -32.6577L302.597 -32.2707C295.833 -25.5235 287.54 -16.3688 284.92 -6.02805C283.613 -0.866784 283.72 4.58615 286.137 10.1867C288.555 15.7899 293.295 21.5631 301.292 27.3473C319.91 40.8138 337.204 41.49 350.602 42.0139C351.846 42.0625 353.056 42.1098 354.231 42.1659C361.122 42.4952 366.867 43.1273 370.901 46.2062C374.955 49.3007 377.206 54.7985 377.319 64.6558L376.731 64.6419C376.617 54.8338 374.375 49.5583 370.539 46.6307C366.684 43.6877 361.142 43.0492 354.222 42.7186C353.049 42.6625 351.84 42.6154 350.595 42.5668C337.191 42.0441 319.72 41.3628 300.943 27.7812C292.883 21.9513 288.061 16.1003 285.592 10.3786C283.122 4.65425 283.016 -0.918489 284.347 -6.17436ZM295.726 -30.0804C288.965 -23.3361 280.57 -14.0907 277.912 -3.59713C276.58 1.65874 276.686 7.23148 279.156 12.9558C281.626 18.6775 286.447 24.5285 294.507 30.3584C313.284 43.94 330.755 44.6213 344.159 45.144L344.159 45.144C345.404 45.1926 346.614 45.2398 347.786 45.2958C354.706 45.6264 360.248 46.2649 364.104 49.2079C367.939 52.1355 370.182 57.411 370.295 67.2192L370.884 67.2331C370.77 57.3758 368.519 51.8779 364.465 48.7835C360.431 45.7045 354.687 45.0724 347.795 44.7432C346.621 44.687 345.41 44.6397 344.167 44.5911C330.769 44.0672 313.474 43.391 294.856 29.9245C286.859 24.1403 282.119 18.3672 279.701 12.764C277.284 7.16338 277.177 1.71045 278.485 -3.45082C281.105 -13.7916 289.398 -22.9463 296.162 -29.6935L295.726 -30.0804ZM271.127 -1.64222C273.786 -12.1358 282.181 -21.3812 288.942 -28.1255L289.377 -27.7385C282.613 -20.9914 274.32 -11.8367 271.7 -1.49591C270.393 3.66536 270.5 9.11829 272.917 14.7189C275.335 20.3221 280.075 26.0952 288.071 31.8794C306.689 45.3459 323.984 46.0221 337.382 46.546C338.626 46.5946 339.836 46.642 341.01 46.6981C347.902 47.0273 353.647 47.6594 357.681 50.7384C361.735 53.8328 363.986 59.3307 364.099 69.188L363.51 69.1741C363.397 59.3659 361.155 54.0904 357.319 51.1628C353.463 48.2198 347.922 47.5813 341.002 47.2507C339.829 47.1947 338.62 47.1475 337.375 47.099C323.971 46.5762 306.5 45.8949 287.723 32.3133C279.663 26.4834 274.841 20.6324 272.372 14.9107C269.902 9.1864 269.795 3.61365 271.127 -1.64222ZM281.952 -26.5578C275.191 -19.8135 266.796 -10.5681 264.138 -0.0745205C262.806 5.18135 262.912 10.7541 265.383 16.4784C267.852 22.2001 272.673 28.0511 280.734 33.881C299.511 47.4626 316.982 48.1439 330.386 48.6667C331.63 48.7152 332.84 48.7624 334.012 48.8184C340.933 49.149 346.474 49.7875 350.33 52.7305C354.165 55.6581 356.408 60.9336 356.521 70.7418L357.11 70.7557C356.996 60.8984 354.745 55.4005 350.691 52.3061C346.657 49.2271 340.913 48.595 334.021 48.2658C332.847 48.2097 331.637 48.1623 330.393 48.1137C316.995 47.5898 299.7 46.9136 281.082 33.4471C273.085 27.6629 268.346 21.8898 265.927 16.2866C263.511 10.686 263.403 5.23305 264.711 0.0717888C267.331 -10.269 275.624 -19.4237 282.388 -26.1708L281.952 -26.5578ZM257.051 1.30399C259.71 -9.18954 268.105 -18.4349 274.866 -25.1793L275.301 -24.7923C268.538 -18.0452 260.244 -8.89044 257.625 1.4503C256.317 6.61157 256.424 12.0645 258.841 17.6651C261.259 23.2683 265.999 29.0414 273.996 34.8256C292.614 48.2921 309.909 48.9684 323.307 49.4922C324.55 49.5408 325.76 49.5882 326.935 49.6443C333.827 49.9735 339.571 50.6056 343.605 53.6846C347.659 56.779 349.91 62.2769 350.024 72.1342L349.435 72.1203C349.322 62.3121 347.079 57.0366 343.243 54.109C339.388 51.166 333.846 50.5275 326.926 50.1969C325.754 50.1409 324.544 50.0937 323.299 50.0452C309.895 49.5225 292.424 48.8411 273.647 35.2595C265.587 29.4297 260.765 23.5786 258.296 17.8569C255.826 12.1326 255.72 6.55987 257.051 1.30399ZM267.764 -23.8326C261.003 -17.0882 252.608 -7.84279 249.95 2.65075C248.618 7.90662 248.724 13.4794 251.195 19.2037C253.664 24.9254 258.485 30.7764 266.545 36.6063C285.323 50.1879 302.794 50.8692 316.198 51.3919C317.442 51.4405 318.652 51.4876 319.824 51.5437C326.744 51.8743 332.286 52.5128 336.142 55.4558C339.977 58.3834 342.22 63.6589 342.333 73.467L342.922 73.481C342.808 63.6236 340.557 58.1258 336.503 55.0313C332.469 51.9524 326.725 51.3203 319.833 50.991C318.659 50.9349 317.449 50.8876 316.205 50.839C302.807 50.3151 285.512 49.6389 266.894 36.1724C258.897 30.3882 254.158 24.615 251.739 19.0118C249.323 13.4113 249.215 7.95832 250.523 2.79706C253.143 -7.54369 261.436 -16.6984 268.2 -23.4456L267.764 -23.8326ZM242.891 4.08386C245.549 -6.40968 253.944 -15.6551 260.705 -22.3994L261.141 -22.0125C254.377 -15.2653 246.084 -6.11057 243.464 4.23017C242.156 9.39144 242.264 14.8444 244.68 20.4449C247.099 26.0482 251.838 31.8213 259.835 37.6055C278.453 51.072 295.748 51.7482 309.146 52.2721C310.39 52.3207 311.6 52.368 312.774 52.4241C319.666 52.7534 325.41 53.3855 329.444 56.4645C333.498 59.5589 335.749 65.0567 335.863 74.9141L335.274 74.9002C335.161 65.092 332.918 59.8165 329.083 56.8889C325.227 53.9459 319.686 53.3074 312.765 52.9768C311.593 52.9208 310.383 52.8736 309.139 52.825C295.735 52.3023 278.264 51.621 259.487 38.0394C251.426 32.2095 246.605 26.3585 244.136 20.6368C241.665 14.9125 241.559 9.33973 242.891 4.08386ZM253.736 -20.7932C246.975 -14.0489 238.58 -4.80346 235.921 5.69007C234.59 10.9459 234.696 16.5187 237.166 22.243C239.636 27.9647 244.457 33.8157 252.517 39.6456C271.294 53.2272 288.765 53.9085 302.169 54.4313L302.169 54.4313C303.414 54.4798 304.624 54.527 305.796 54.583C312.716 54.9136 318.258 55.5521 322.114 58.4951C325.949 61.4227 328.192 66.6982 328.305 76.5064L328.894 76.5203C328.78 66.663 326.529 61.1651 322.475 58.0707C318.441 54.9917 312.697 54.3596 305.805 54.0304C304.63 53.9742 303.42 53.9269 302.177 53.8783C288.779 53.3544 271.484 52.6782 252.866 39.2117C244.869 33.4275 240.129 27.6544 237.711 22.0512C235.294 16.4506 235.187 10.9976 236.495 5.83638C239.115 -4.50436 247.408 -13.6591 254.171 -20.4063L253.736 -20.7932ZM229.075 7.52942C231.734 -2.96411 240.129 -12.2095 246.89 -18.9539L247.325 -18.5669C240.562 -11.8197 232.268 -2.66501 229.649 7.67573C228.341 12.837 228.448 18.2899 230.865 23.8905C233.283 29.4937 238.023 35.2668 246.02 41.051C264.638 54.5175 281.933 55.1938 295.33 55.7177C296.574 55.7663 297.784 55.8136 298.959 55.8697C305.85 56.199 311.595 56.831 315.629 59.91C319.683 63.0044 321.934 68.5023 322.048 78.3596L321.459 78.3457C321.346 68.5376 319.103 63.262 315.267 60.3345C311.412 57.3915 305.87 56.753 298.95 56.4223C297.778 56.3663 296.568 56.3191 295.323 56.2706L295.323 56.2706C281.919 55.7479 264.448 55.0665 245.671 41.485C237.611 35.6551 232.789 29.8041 230.32 24.0824C227.85 18.358 227.744 12.7853 229.075 7.52942ZM240.191 -16.8415C233.43 -10.0971 225.035 -0.851697 222.377 9.64184C221.045 14.8977 221.151 20.4705 223.622 26.1948C226.091 31.9165 230.912 37.7675 238.972 43.5974C257.749 57.1789 275.221 57.8603 288.624 58.383L288.624 58.383L288.624 58.383C289.869 58.4316 291.079 58.4787 292.251 58.5348C299.171 58.8654 304.713 59.5039 308.569 62.4469C312.404 65.3745 314.647 70.65 314.76 80.4581L315.349 80.472C315.235 70.6147 312.984 65.1169 308.93 62.0224C304.896 58.9435 299.152 58.3114 292.26 57.9821C291.086 57.926 289.875 57.8787 288.632 57.8301C275.234 57.3062 257.939 56.63 239.321 43.1635C231.324 37.3793 226.584 31.6061 224.166 26.0029C221.749 20.4023 221.642 14.9494 222.95 9.78815C225.57 -0.552595 233.863 -9.70733 240.627 -16.4545L240.191 -16.8415Z" fill="url(#paint0_radial_1_188)" fill-opacity="0.58"/>
<path d="M12.053 73H15.901C17.864 73 18.995 72.051 18.995 70.426C18.995 69.321 18.488 68.567 17.487 68.242C18.384 67.865 18.852 67.111 18.852 66.058C18.852 64.472 17.708 63.497 15.836 63.497H12.053V73ZM15.693 64.966C16.629 64.966 17.149 65.408 17.149 66.227C17.149 67.072 16.642 67.553 15.732 67.553H13.717V64.966H15.693ZM15.836 68.957C16.759 68.957 17.292 69.412 17.292 70.218C17.292 71.076 16.772 71.531 15.836 71.531H13.717V68.957H15.836ZM21.0798 65.291C21.5998 65.291 22.0288 64.862 22.0288 64.329C22.0288 63.796 21.5998 63.38 21.0798 63.38C20.5338 63.38 20.1048 63.796 20.1048 64.329C20.1048 64.862 20.5338 65.291 21.0798 65.291ZM20.2868 73H21.8728V66.578H20.2868V73ZM25.1104 73V63.328H23.5374V73H25.1104ZM28.3731 73V63.328H26.8001V73H28.3731ZM30.8298 65.291C31.3498 65.291 31.7788 64.862 31.7788 64.329C31.7788 63.796 31.3498 63.38 30.8298 63.38C30.2838 63.38 29.8548 63.796 29.8548 64.329C29.8548 64.862 30.2838 65.291 30.8298 65.291ZM30.0368 73H31.6228V66.578H30.0368V73ZM36.1344 73.169C37.8114 73.169 38.9814 72.324 39.2544 70.92H37.7854C37.6034 71.531 37.0314 71.869 36.1604 71.869C35.1074 71.869 34.5094 71.297 34.3924 70.166L39.2284 70.153V69.672C39.2284 67.67 38.0064 66.383 36.0824 66.383C34.1974 66.383 32.8844 67.774 32.8844 69.789C32.8844 71.778 34.2234 73.169 36.1344 73.169ZM36.0954 67.683C37.0444 67.683 37.6554 68.268 37.6554 69.152H34.4314C34.5874 68.19 35.1594 67.683 36.0954 67.683ZM50.1376 73V71.466H45.8996V68.944H49.6956V67.475H45.8996V65.031H50.1376V63.497H44.2356V73H50.1376ZM52.5007 65.291C53.0207 65.291 53.4497 64.862 53.4497 64.329C53.4497 63.796 53.0207 63.38 52.5007 63.38C51.9547 63.38 51.5257 63.796 51.5257 64.329C51.5257 64.862 51.9547 65.291 52.5007 65.291ZM51.7077 73H53.2937V66.578H51.7077V73ZM56.5313 73V63.328H54.9583V73H56.5313ZM58.988 65.291C59.508 65.291 59.937 64.862 59.937 64.329C59.937 63.796 59.508 63.38 58.988 63.38C58.442 63.38 58.013 63.796 58.013 64.329C58.013 64.862 58.442 65.291 58.988 65.291ZM58.195 73H59.781V66.578H58.195V73ZM60.9256 71.05C60.9256 72.311 61.9396 73.169 63.5386 73.169C65.1246 73.169 66.2296 72.363 66.2296 71.063C66.2296 70.075 65.6836 69.581 64.6046 69.334L63.4476 69.061C62.9016 68.931 62.6156 68.697 62.6156 68.333C62.6156 67.852 62.9796 67.566 63.6036 67.566C64.2146 67.566 64.5786 67.917 64.5916 68.463H66.0996C66.0866 67.215 65.1116 66.383 63.6686 66.383C62.1866 66.383 61.1206 67.137 61.1206 68.398C61.1206 69.425 61.6796 69.971 62.8366 70.231L63.9936 70.504C64.5656 70.634 64.7346 70.868 64.7346 71.193C64.7346 71.661 64.3316 71.96 63.5906 71.96C62.8626 71.96 62.4466 71.609 62.4336 71.05H60.9256ZM69.0232 73V69.49C69.0232 68.528 69.6082 67.826 70.6092 67.826C71.4152 67.826 71.9482 68.346 71.9482 69.425V73H73.5342V69.048C73.5342 67.384 72.7022 66.383 71.1162 66.383C70.1932 66.383 69.4392 66.786 69.0362 67.41V63.328H67.4372V73H69.0232Z" fill="#FBFBFB"/>
<path d="M14.971 24V18.11H21.127V24H23.559V10.111H21.127V15.849H14.971V10.111H12.539V24H14.971ZM29.0916 24.247C30.5546 24.247 31.8276 23.582 32.2266 22.613L32.3976 24H34.4306V18.3C34.4306 15.697 32.8726 14.329 30.3456 14.329C27.7996 14.329 26.1276 15.659 26.1276 17.692H28.1036C28.1036 16.704 28.8636 16.134 30.2316 16.134C31.4096 16.134 32.1696 16.647 32.1696 17.92V18.129L29.3576 18.338C27.1346 18.509 25.8806 19.592 25.8806 21.321C25.8806 23.088 27.0966 24.247 29.0916 24.247ZM29.8516 22.499C28.8066 22.499 28.2366 22.081 28.2366 21.226C28.2366 20.466 28.7876 19.991 30.2316 19.858L32.1886 19.706V20.2C32.1886 21.644 31.2766 22.499 29.8516 22.499ZM36.7077 28.351H39.0257V22.746C39.6147 23.696 40.8307 24.247 42.2367 24.247C45.0297 24.247 46.6257 22.119 46.6257 19.193C46.6257 16.248 44.8777 14.329 42.2367 14.329C40.8117 14.329 39.5767 14.956 39.0067 16.039L38.8547 14.614H36.7077V28.351ZM39.0447 19.307C39.0447 17.616 40.0897 16.438 41.6857 16.438C43.3197 16.438 44.2887 17.635 44.2887 19.307C44.2887 20.979 43.3197 22.157 41.6857 22.157C40.0897 22.157 39.0447 20.998 39.0447 19.307ZM48.4714 28.351H50.7894V22.746C51.3784 23.696 52.5944 24.247 54.0004 24.247C56.7934 24.247 58.3894 22.119 58.3894 19.193C58.3894 16.248 56.6414 14.329 54.0004 14.329C52.5754 14.329 51.3404 14.956 50.7704 16.039L50.6184 14.614H48.4714V28.351ZM50.8084 19.307C50.8084 17.616 51.8534 16.438 53.4494 16.438C55.0834 16.438 56.0524 17.635 56.0524 19.307C56.0524 20.979 55.0834 22.157 53.4494 22.157C51.8534 22.157 50.8084 20.998 50.8084 19.307ZM61.3941 12.733C62.1541 12.733 62.7811 12.106 62.7811 11.327C62.7811 10.548 62.1541 9.94 61.3941 9.94C60.5961 9.94 59.9691 10.548 59.9691 11.327C59.9691 12.106 60.5961 12.733 61.3941 12.733ZM60.2351 24H62.5531V14.614H60.2351V24ZM69.147 24.247C71.598 24.247 73.308 23.012 73.707 20.96H71.56C71.294 21.853 70.458 22.347 69.185 22.347C67.646 22.347 66.772 21.511 66.601 19.858L73.669 19.839V19.136C73.669 16.21 71.883 14.329 69.071 14.329C66.316 14.329 64.397 16.362 64.397 19.307C64.397 22.214 66.354 24.247 69.147 24.247ZM69.09 16.229C70.477 16.229 71.37 17.084 71.37 18.376H66.658C66.886 16.97 67.722 16.229 69.09 16.229ZM81.4141 14.576C81.0341 14.481 80.7111 14.443 80.3881 14.443C79.1341 14.443 78.2411 15.07 77.8421 16.001L77.7091 14.633H75.5241V24H77.8421V19.44C77.8421 17.616 78.8871 16.723 80.5591 16.723H81.4141V14.576ZM87.2302 12.353H91.2962V24H93.7282V12.353H97.7942V10.111H87.2302V12.353ZM101.629 24V18.87C101.629 17.464 102.484 16.438 103.947 16.438C105.125 16.438 105.904 17.198 105.904 18.775V24H108.222V18.224C108.222 15.792 107.006 14.329 104.688 14.329C103.339 14.329 102.237 14.918 101.648 15.83V9.864H99.3113V24H101.629ZM113.293 24.247C114.756 24.247 116.029 23.582 116.428 22.613L116.599 24H118.632V18.3C118.632 15.697 117.074 14.329 114.547 14.329C112.001 14.329 110.329 15.659 110.329 17.692H112.305C112.305 16.704 113.065 16.134 114.433 16.134C115.611 16.134 116.371 16.647 116.371 17.92V18.129L113.559 18.338C111.336 18.509 110.082 19.592 110.082 21.321C110.082 23.088 111.298 24.247 113.293 24.247ZM114.053 22.499C113.008 22.499 112.438 22.081 112.438 21.226C112.438 20.466 112.989 19.991 114.433 19.858L116.39 19.706V20.2C116.39 21.644 115.478 22.499 114.053 22.499ZM123.227 24V18.946C123.227 17.426 124.101 16.438 125.526 16.438C126.723 16.438 127.502 17.198 127.502 18.775V24H129.82V18.224C129.82 15.792 128.604 14.329 126.248 14.329C124.975 14.329 123.835 14.88 123.246 15.83L123.056 14.614H120.909V24H123.227ZM21.165 50V47.758H14.971V44.072H20.519V41.925H14.971V38.353H21.165V36.111H12.539V50H21.165ZM25.7115 50H27.9915L31.9055 40.614H29.5115L27.8015 44.927C27.4025 45.953 27.0605 46.941 26.9275 47.53C26.8135 47.017 26.4905 46.048 26.0915 44.927L24.4575 40.614H21.9875L25.7115 50ZM36.9731 50.247C39.4241 50.247 41.1341 49.012 41.5331 46.96H39.3861C39.1201 47.853 38.2841 48.347 37.0111 48.347C35.4721 48.347 34.5981 47.511 34.4271 45.858L41.4951 45.839V45.136C41.4951 42.21 39.7091 40.329 36.8971 40.329C34.1421 40.329 32.2231 42.362 32.2231 45.307C32.2231 48.214 34.1801 50.247 36.9731 50.247ZM36.9161 42.229C38.3031 42.229 39.1961 43.084 39.1961 44.376H34.4841C34.7121 42.97 35.5481 42.229 36.9161 42.229ZM49.2403 40.576C48.8603 40.481 48.5373 40.443 48.2143 40.443C46.9603 40.443 46.0673 41.07 45.6683 42.001L45.5353 40.633H43.3503V50H45.6683V45.44C45.6683 43.616 46.7133 42.723 48.3853 42.723H49.2403V40.576Z" fill="#FBFBFB"/>
</g>
<defs>
<radialGradient id="paint0_radial_1_188" cx="0" cy="0" r="1" gradientUnits="userSpaceOnUse" gradientTransform="translate(299.981 14.6409) rotate(44.6554) scale(82.2368 83.1472)">
<stop stop-color="white"/>
<stop offset="1" stop-color="#1E1E1E" stop-opacity="0"/>
<stop offset="1" stop-color="#0E0E35" stop-opacity="0"/>
<stop offset="1" stop-color="white" stop-opacity="0"/>
</radialGradient>
<clipPath id="clip0_1_188">
<rect x="-8" y="-26" width="334" height="118" rx="30" fill="white"/>
</clipPath>
</defs>
</svg>
